[Header]
FileType HTR
DataType HTRS
FileVersion 1
NumSegments 22
NumFrames 6
DataFrameRate 24
EulerRotationOrder ZYX
CalibrationUnits mm
RotationUnits Degrees
GlobalAxisofGravity Y
BoneLengthAxis Y
ScaleFactor 1.0
[SegmentNames&Hierarchy]
reference	GLOBAL
Hips	reference
Spine	Hips
Spine1	Spine
Neck	Spine1
Head	Neck
LeftShoulder	Spine1
LeftArm	LeftShoulder
LeftForeArm	LeftArm
LeftHand	LeftForeArm
RightShoulder	Spine1
RightArm	RightShoulder
RightForeArm	RightArm
RightHand	RightForeArm
LeftUpLeg	Hips
LeftLeg	LeftUpLeg
LeftFoot	LeftLeg
LeftToeBase	LeftFoot
RightUpLeg	Hips
RightLeg	RightUpLeg
RightFoot	RightLeg
RightToeBase	RightFoot
[BasePosition]
reference	0	0	0	0	0	0	1
Hips	0	0	0	0	0	0	1
Spine	0	0	0	0	-0	90	1
Spine1	0	0	0	0	0	0	1
Neck	0	0	0	-7.352430803	-7.352430803	90	1
Head	0	0	0	0	-0	90	1
LeftShoulder	0	0	0	0	0	0	1
LeftArm	0	0	0	0	0	0	1
LeftForeArm	0	0	0	0	0	0	1
LeftHand	0	0	0	0	0	0	1
RightShoulder	0	0	0	0	-0	180	1
RightArm	0	0	0	0	-0	180	1
RightForeArm	0	0	0	0	-0	180	1
RightHand	0	0	0	0	-0	180	1
LeftUpLeg	0	0	0	0	-0	-90	1
LeftLeg	0	0	0	0	-0	-90	1
LeftFoot	0	0	0	66.57150701	-66.57150701	-90	1
LeftToeBase	0	0	0	0	-90	0	1
RightUpLeg	0	0	0	0	-0	-90	1
RightLeg	0	0	0	0	-0	-90	1
RightFoot	0	0	0	66.57150701	-66.57150701	-90	1
RightToeBase	0	0	0	0	-90	0	1
[reference]
10	0	0	0	0	-0	0	1.0
11	0	0	0	0	-0	0	1.0
12	0	0	0	0	-0	0	1.0
13	0	0	0	0	-0	0	1.0
14	0	0	0	0	-0	0	1.0
15	0	0	0	0	-0	0	1.0
[Hips]
10	9.161940575	8.784359932	1.292192698	16.16678238	-104.360611	-9.303527832	1.0
11	9.161940575	8.784359932	1.283264756	16.23652649	-104.4650574	-9.277758598	1.0
12	9.161940575	8.784359932	1.26687634	15.93170452	-104.6576385	-8.966140747	1.0
13	9.161940575	8.784359932	1.242735147	16.06382751	-105.2297821	-8.772979736	1.0
14	9.161940575	8.784359932	1.218285441	16.01814461	-105.8030777	-8.732633591	1.0
15	9.161940575	8.784359932	1.193801761	15.31997585	-106.0317535	-7.954095364	1.0
[Spine]
10	0	0.7478299737	0	-15.33875942	-1.002595544	-91.17036438	1.0
11	0	0.7478299737	0	-15.10701847	-0.9675732851	-91.22063446	1.0
12	0	0.7478299737	0	-14.90714836	-0.8959684968	-91.24578857	1.0
13	0	0.7478299737	0	-15.05874825	-0.6369994879	-91.12667084	1.0
14	0	0.7478299737	0	-14.9524498	-0.5368255377	-91.30072021	1.0
15	0	0.7478299737	0	-14.75748062	-0.7209538221	-91.00939941	1.0
[Spine1]
10	0	2.049309969	0	7.726285934	-0.1063711643	-2.580015898	1.0
11	0	2.049309969	0	7.5677104	-0.104874976	-2.527086496	1.0
12	0	2.049309969	0	7.50730896	-0.07919932902	-2.550271511	1.0
13	0	2.049309969	0	7.413556576	0.02288904972	-2.877202749	1.0
14	0	2.049309969	0	7.390106678	0.06610124558	-3.00003171	1.0
15	0	2.049309969	0	7.070482731	-0.005295599345	-3.037747145	1.0
[Neck]
10	0	2.231709957	0	3.352769375	7.601202965	-86.23826599	1.0
11	0	2.231709957	0	3.232091427	7.625857353	-86.44538879	1.0
12	0	2.231709957	0	2.951332092	7.745080948	-86.45285797	1.0
13	0	2.231709957	0	2.774133205	7.986154556	-86.43067932	1.0
14	0	2.231709957	0	2.661651134	8.275239944	-86.30313873	1.0
15	0	2.231709957	0	2.5320611	8.611614227	-86.49979401	1.0
[Head]
10	0	1.413589954	0.1823999882	-10.52979279	0.6850041747	-92.27905273	1.0
11	0	1.413589954	0.1823999882	-10.57555962	0.6809458733	-92.14472961	1.0
12	0	1.413589954	0.1823999882	-10.42559433	0.7917505503	-92.06845093	1.0
13	0	1.413589954	0.1823999882	-10.34543514	1.028434157	-91.96128845	1.0
14	0	1.413589954	0.1823999882	-10.27345181	1.331177473	-92.02449036	1.0
15	0	1.413589954	0.1823999882	-10.27268791	1.653074026	-92.13080597	1.0
[LeftShoulder]
10	0.3649300039	1.825889945	-0.04271000251	-10.43911362	-7.998838902	1.902734518	1.0
11	0.3649300039	1.825889945	-0.04271000251	-10.20726681	-8.122434616	1.852881908	1.0
12	0.3649300039	1.825889945	-0.04271000251	-10.24628448	-8.114066124	1.921484709	1.0
13	0.3649300039	1.825889945	-0.04271000251	-10.22112083	-8.053627014	2.145076513	1.0
14	0.3649300039	1.825889945	-0.04271000251	-10.2594223	-8.054268837	2.423578978	1.0
15	0.3649300039	1.825889945	-0.04271000251	-10.07603741	-8.070355415	2.264258623	1.0
[LeftArm]
10	1.24003005	0	0	42.99436951	8.355496407	-80.63632202	1.0
11	1.24003005	0	0	42.40832901	8.148501396	-80.49526215	1.0
12	1.24003005	0	0	42.25595856	8.129723549	-80.39464569	1.0
13	1.24003005	0	0	41.42808533	8.08449173	-80.25390625	1.0
14	1.24003005	0	0	40.97658157	8.232608795	-80.18969727	1.0
15	1.24003005	0	0	40.66369247	8.328057289	-79.85534668	1.0
[LeftForeArm]
10	2.847419977	0	0	-12.76765537	-14.60398579	-2.960995197	1.0
11	2.847419977	0	0	-12.53061676	-14.49052048	-3.311431408	1.0
12	2.847419977	0	0	-12.41996384	-14.65306759	-3.487947702	1.0
13	2.847419977	0	0	-11.78350925	-15.04540253	-4.089120388	1.0
14	2.847419977	0	0	-10.91019821	-15.72221565	-4.390816689	1.0
15	2.847419977	0	0	-10.55265522	-16.77866364	-4.346688747	1.0
[LeftHand]
10	2.258270025	0	0	-13.09442997	-3.906552315	-1.535846472	1.0
11	2.258270025	0	0	-12.8738575	-4.824607849	-1.775732398	1.0
12	2.258270025	0	0	-12.84966469	-3.756382227	-0.5666465163	1.0
13	2.258270025	0	0	-12.33131599	-3.767225027	0.2413432598	1.0
14	2.258270025	0	0	-11.521698	-4.049285412	0.1592963189	1.0
15	2.258270025	0	0	-11.18882656	-5.570390224	-0.1003604978	1.0
[RightShoulder]
10	-0.3646599948	1.825889945	-0.04271000251	-7.734874725	7.329218864	179.4851074	1.0
11	-0.3646599948	1.825889945	-0.04271000251	-7.521840572	7.29574585	179.5307007	1.0
12	-0.3646599948	1.825889945	-0.04271000251	-7.58018589	7.297890663	179.4441833	1.0
13	-0.3646599948	1.825889945	-0.04271000251	-7.657864571	7.351307392	179.4171295	1.0
14	-0.3646599948	1.825889945	-0.04271000251	-7.75518465	7.371959686	179.5788269	1.0
15	-0.3646599948	1.825889945	-0.04271000251	-7.526592255	7.424842834	179.1431732	1.0
[RightArm]
10	-1.24003005	0	0	44.48379517	-5.379691124	-98.33152008	1.0
11	-1.24003005	0	0	45.21470642	-5.034436226	-98.06199646	1.0
12	-1.24003005	0	0	45.17277908	-5.05745554	-97.99172211	1.0
13	-1.24003005	0	0	45.43655014	-5.190522671	-97.77980042	1.0
14	-1.24003005	0	0	45.57860184	-5.474321842	-97.79213715	1.0
15	-1.24003005	0	0	44.18258286	-5.532480717	-97.47463989	1.0
[RightForeArm]
10	-2.847419977	0	0	-1.670291781	14.81612492	177.6550903	1.0
11	-2.847419977	0	0	-1.877147436	14.56752586	177.1701355	1.0
12	-2.847419977	0	0	-1.270515203	14.97453785	177.5045319	1.0
13	-2.847419977	0	0	-2.252823114	15.38554001	177.1061554	1.0
14	-2.847419977	0	0	-2.068059683	15.71237946	177.135849	1.0
15	-2.847419977	0	0	-1.236289024	16.33174896	177.7091675	1.0
[RightHand]
10	-2.258270025	0	0	-1.552816987	5.75850296	176.292511	1.0
11	-2.258270025	0	0	-1.723881841	6.213953495	176.1500092	1.0
12	-2.258270025	0	0	-1.170171618	6.297174931	175.8726807	1.0
13	-2.258270025	0	0	-2.059633017	6.005652905	176.2337494	1.0
14	-2.258270025	0	0	-1.868673325	6.07952261	176.3134918	1.0
15	-2.258270025	0	0	-1.101646543	6.242287159	176.4598541	1.0
[LeftUpLeg]
10	0.9119900465	0	0	-2.441525221	-6.196494102	88.90544128	1.0
11	0.9119900465	0	0	-2.552732468	-5.98186779	89.04503632	1.0
12	0.9119900465	0	0	-3.059009075	-5.441862106	89.24345398	1.0
13	0.9119900465	0	0	-4.332644463	-5.209785461	89.3239975	1.0
14	0.9119900465	0	0	-6.25232172	-5.366571903	89.33901978	1.0
15	0.9119900465	0	0	-10.65421295	-7.448036194	90.38172913	1.0
[LeftLeg]
10	0	-4.371409893	0	2.102516413	-0.7865467072	88.56565094	1.0
11	0	-4.371409893	0	2.246306181	-0.8332056403	88.44598389	1.0
12	0	-4.371409893	0	3.203922749	-1.172812462	88.301651	1.0
13	0	-4.371409893	0	5.334806442	-0.4781857729	88.27797699	1.0
14	0	-4.371409893	0	9.70082283	2.022595882	88.70565796	1.0
15	0	-4.371409893	0	18.44748688	6.670954704	89.1111145	1.0
[LeftFoot]
10	0	-3.918009996	0	-82.05636597	108.8228455	-42.04034042	1.0
11	0	-3.918009996	0	-81.64435577	108.6569901	-41.28839874	1.0
12	0	-3.918009996	0	-80.94161987	108.1971054	-39.61904907	1.0
13	0	-3.918009996	0	-81.52015686	107.518364	-39.12051392	1.0
14	0	-3.918009996	0	-87.16804504	105.7827148	-43.8969841	1.0
15	0	-3.918009996	0	-94.20613098	103.9000244	-49.62469482	1.0
[LeftToeBase]
10	0	-0.5927900076	1.367989898	0	0	0	1.0
11	0	-0.5927900076	1.367989898	0	0	0	1.0
12	0	-0.5927900076	1.367989898	0	0	0	1.0
13	0	-0.5927900076	1.367989898	0	0	0	1.0
14	0	-0.5927900076	1.367989898	0	0	0	1.0
15	0	-0.5927900076	1.367989898	0	0	0	1.0
[RightUpLeg]
10	-0.9119900465	0	0	2.120534897	-16.16459656	93.08296204	1.0
11	-0.9119900465	0	0	2.040235996	-16.15077782	93.20153809	1.0
12	-0.9119900465	0	0	1.268545628	-14.06229019	93.41752625	1.0
13	-0.9119900465	0	0	0.3626849651	-12.87175274	93.53262329	1.0
14	-0.9119900465	0	0	0.06821961701	-11.97302151	93.66805267	1.0
15	-0.9119900465	0	0	0.1304617375	-10.30849648	93.78477478	1.0
[RightLeg]
10	0	-4.371409893	0	-0.03067149594	0.07731956989	90.1397934	1.0
11	0	-4.371409893	0	0.09669648111	0.06836234033	90.1190033	1.0
12	0	-4.371409893	0	1.262778282	0.04051180184	90.11096954	1.0
13	0	-4.371409893	0	2.431400776	0.04742126912	90.17987823	1.0
14	0	-4.371409893	0	3.300383568	0.2394509315	89.78552246	1.0
15	0	-4.371409893	0	3.756141186	-0.08708558977	90.0448761	1.0
[RightFoot]
10	0	-3.918009996	0	47.63537598	65.79107666	83.71459961	1.0
11	0	-3.918009996	0	47.17536163	66.09597015	83.46339417	1.0
12	0	-3.918009996	0	45.76551056	62.49568939	84.08169556	1.0
13	0	-3.918009996	0	43.7911644	61.92057419	82.89580536	1.0
14	0	-3.918009996	0	41.60667419	63.021698	81.74416351	1.0
15	0	-3.918009996	0	36.98788452	65.89157867	76.50523376	1.0
[RightToeBase]
10	0	-0.5927900076	1.367989898	0	0	0	1.0
11	0	-0.5927900076	1.367989898	0	0	0	1.0
12	0	-0.5927900076	1.367989898	0	0	0	1.0
13	0	-0.5927900076	1.367989898	0	0	0	1.0
14	0	-0.5927900076	1.367989898	0	0	0	1.0
15	0	-0.5927900076	1.367989898	0	0	0	1.0
[EndOfFile]
